<svg width="181" height="50" fill="none" xmlns="http://www.w3.org/2000/svg"><path d="M78.55 16.45V28.4c0 1.85-.525 3.275-1.575 4.275-1.033 1-2.433 1.5-4.2 1.5-1.85 0-3.333-.525-4.45-1.575-1.117-1.05-1.675-2.542-1.675-4.475h4.25c0 .733.15 1.292.45 1.675.3.367.733.55 1.3.55.517 0 .917-.167 1.2-.5.283-.333.425-.817.425-1.45V16.45h4.275zM90.853 34.2c-1.366 0-2.6-.292-3.7-.875a6.514 6.514 0 0 1-2.575-2.5c-.617-1.083-.925-2.35-.925-3.8 0-1.433.317-2.692.95-3.775a6.424 6.424 0 0 1 2.6-2.525c1.1-.583 2.334-.875 3.7-.875 1.367 0 2.6.292 3.7.875a6.423 6.423 0 0 1 2.6 2.525c.633 1.083.95 2.342.95 3.775 0 1.433-.325 2.7-.975 3.8a6.429 6.429 0 0 1-2.625 2.5c-1.1.583-2.333.875-3.7.875zm0-3.7c.817 0 1.509-.3 2.075-.9.584-.6.875-1.458.875-2.575 0-1.117-.283-1.975-.85-2.575-.55-.6-1.233-.9-2.05-.9-.833 0-1.525.3-2.075.9-.55.583-.825 1.442-.825 2.575 0 1.117.267 1.975.8 2.575.55.6 1.234.9 2.05.9zm16.343-8.475c.4-.65.975-1.175 1.725-1.575.75-.4 1.608-.6 2.575-.6 1.15 0 2.192.292 3.125.875.933.583 1.667 1.417 2.2 2.5.55 1.083.825 2.342.825 3.775 0 1.433-.275 2.7-.825 3.8-.533 1.083-1.267 1.925-2.2 2.525-.933.583-1.975.875-3.125.875-.983 0-1.842-.192-2.575-.575-.733-.4-1.308-.925-1.725-1.575V34h-4.275V15.5h4.275v6.525zm6.1 4.975c0-1.067-.3-1.9-.9-2.5-.583-.617-1.308-.925-2.175-.925-.85 0-1.575.308-2.175.925-.583.617-.875 1.458-.875 2.525s.292 1.908.875 2.525c.6.617 1.325.925 2.175.925.85 0 1.575-.308 2.175-.925.6-.633.9-1.483.9-2.55zm14.768 7.2c-1.217 0-2.3-.208-3.25-.625-.95-.417-1.7-.983-2.25-1.7a4.572 4.572 0 0 1-.925-2.45h4.225c.05.483.275.875.675 1.175.4.3.892.45 1.475.45.533 0 .942-.1 1.225-.3.3-.217.45-.492.45-.825 0-.4-.208-.692-.625-.875-.417-.2-1.092-.417-2.025-.65-1-.233-1.833-.475-2.5-.725a4.484 4.484 0 0 1-1.725-1.225c-.483-.567-.725-1.325-.725-2.275 0-.8.217-1.525.65-2.175.45-.667 1.1-1.192 1.95-1.575.867-.383 1.892-.575 3.075-.575 1.75 0 3.125.433 4.125 1.3 1.017.867 1.6 2.017 1.75 3.45h-3.95c-.067-.483-.283-.867-.65-1.15-.35-.283-.817-.425-1.4-.425-.5 0-.883.1-1.15.3a.886.886 0 0 0-.4.775c0 .4.208.7.625.9.433.2 1.1.4 2 .6 1.033.267 1.875.533 2.525.8.65.25 1.217.667 1.7 1.25.5.567.758 1.333.775 2.3 0 .817-.233 1.55-.7 2.2-.45.633-1.108 1.133-1.975 1.5-.85.367-1.842.55-2.975.55zm18.54-3.825V34h-2.175c-1.55 0-2.758-.375-3.625-1.125-.866-.767-1.3-2.008-1.3-3.725V23.6h-1.7v-3.55h1.7v-3.4h4.275v3.4h2.8v3.55h-2.8v5.6c0 .417.1.717.3.9.2.183.534.275 1 .275h1.525zm18.032-3.575c0 .4-.025.817-.075 1.25h-9.675c.066.867.341 1.533.825 2 .5.45 1.108.675 1.825.675 1.066 0 1.808-.45 2.225-1.35h4.55a6.18 6.18 0 0 1-1.275 2.475 6.212 6.212 0 0 1-2.275 1.725c-.917.417-1.942.625-3.075.625-1.367 0-2.584-.292-3.65-.875a6.222 6.222 0 0 1-2.5-2.5c-.6-1.083-.9-2.35-.9-3.8 0-1.45.291-2.717.875-3.8a6.222 6.222 0 0 1 2.5-2.5c1.066-.583 2.291-.875 3.675-.875 1.35 0 2.55.283 3.6.85a6.026 6.026 0 0 1 2.45 2.425c.6 1.05.9 2.275.9 3.675zm-4.375-1.125c0-.733-.25-1.317-.75-1.75-.5-.433-1.125-.65-1.875-.65-.717 0-1.325.208-1.825.625-.484.417-.784 1.008-.9 1.775h5.35zm13.405-3.3a5.52 5.52 0 0 1 1.875-1.8 4.765 4.765 0 0 1 2.5-.675v4.525h-1.175c-1.067 0-1.867.233-2.4.7-.534.45-.8 1.25-.8 2.4V34h-4.275V20.05h4.275v2.325z" fill="#3B82F6"/><rect width="50" height="50" rx="10" fill="#3B82F6"/><path d="M26.004 9.563h5.86V29.25c0 1.81-.404 3.411-1.212 4.805-.794 1.38-1.92 2.448-3.379 3.203-1.458.755-3.105 1.133-4.941 1.133-3.008 0-5.352-.762-7.031-2.285-1.68-1.537-2.52-3.705-2.52-6.504h5.899c0 1.393.293 2.421.879 3.085.585.665 1.51.997 2.773.997 1.12 0 2.012-.384 2.676-1.153.664-.768.996-1.862.996-3.281V9.562z" fill="#fff"/></svg>