<svg data-name="Layer 1" width="567.338" height="478.016" xmlns="http://www.w3.org/2000/svg"><path d="M125.475 44.72c-3.529-12.867 24.936-23.901 32.41-13.54 1.04-1.472 4.881-2.367 6.644-1.915a13.744 13.744 0 0 1 4.69 2.675c1.989 1.527 4.05 3.109 5.27 5.305 1.229 2.187 1.419 5.17-.235 7.068-1.31 1.51-5.18 2.485-7.15 2.883-1.373.28-2.53.506-3.524.669a6.74 6.74 0 0 1-1.175-4.456 5.47 5.47 0 0 0-2.386 4.013c-.027.335 11.107 41.304 11.107 41.304a24.287 24.287 0 0 1-4.202 1.889 52.848 52.848 0 0 1-6.553-14.28 45.762 45.762 0 0 0 .127 10.168 55.948 55.948 0 0 0 .958 5.63c-13.232 2.856-33.134 1.916-41.792-10.23l-.005-.152a2.067 2.067 0 0 0-3.993-.72c-.21.536-.403 1-.576 1.368-2.521-9.02.742-19.459 10.385-37.68z" fill="#2f2e41"/><path fill="#ffb6b6" d="m187.875 456.283 9.859-.083 4.364-38.913-14.55.123.327 38.873z"/><path d="m217.522 468.351-15.746-10.68-.059-7.055-3.386.227-10.496.724-2.573.17-1.867 24.935 7.396-.067 1.26-6.99 3.431 6.955 19.602-.164a4.408 4.408 0 0 0 2.438-8.055z" fill="#2f2e41"/><path fill="#ffb6b6" d="m89.571 452.439 9.747 1.481 10.48-37.728-14.386-2.186-5.841 38.433z"/><path d="m116.93 469.056-13.854-13.042 1.06-6.975-3.379-.313-10.477-.95-2.568-.24-5.798 24.324 7.313 1.106 2.353-6.702 2.285 7.411 19.38 2.947a4.408 4.408 0 0 0 3.684-7.566zM183.34 184.42l27.953 50.065s-1.166 102.965 2.549 106.784 7.078 7.244 3.715 7.213-7.435 8.153-7.435 8.153L203.165 434h-17.543s-12.344-45.623-9.712-71.64l-20.783-95.077s-14.93 89.913-17.62 92.604-4.315 2.671-1.485 5.372 0 8.807 0 8.807l-29.498 61.221-16-2.018s2.774-49.978 12.433-71.434V260.44c-.727 8.693 33.304-79.296 12.493-72.692 6.584-2.09 67.89-3.327 67.89-3.327z" fill="#2f2e41"/><path d="M105.987 270.813a6.821 6.821 0 0 0-.702-9.488 6.544 6.544 0 0 0-.877-.634l4.751-23.317-10.983-6.574-3.055 32.646a6.802 6.802 0 0 0 1.568 8.155 6.51 6.51 0 0 0 9.183-.651l.115-.137zM276.901 219.762a6.821 6.821 0 0 1-5.815-7.53 6.543 6.543 0 0 1 .228-1.057l-19.112-14.177 3.781-12.23 24.082 22.252a6.802 6.802 0 0 1 4.281 7.116 6.51 6.51 0 0 1-7.267 5.65q-.09-.01-.178-.024z" fill="#ffb6b6"/><circle cx="147.594" cy="59.322" r="23.183" fill="#ffb6b6"/><path fill="#ffb6b6" d="m483.533 453.271-8.118 5.278-24.222-28.799 11.981-7.79 20.359 31.311z"/><path d="m489.326 461.554-24.963 16.231-.205-.315a11.59 11.59 0 0 1 3.398-16.034l2.31-6.425 10.757-2.072 2.18-1.417z" fill="#2f2e41"/><path fill="#ffb6b6" d="m344.417 467.102-9.683-.001-4.606-37.348 14.291.001-.002 37.348z"/><path d="m344.758 477.203-29.776-.001v-.377a11.59 11.59 0 0 1 11.59-11.589l5.44-4.126 10.147 4.127h2.6zM444.643 236.64l-86.83 1.91-8.606 10.757s.744-3.793.082.373-17.414 87.23-14.247 90.017-6.005 22.02-6.678 23.193-7.933 59.07 0 63.83l2.98 20.21h13.866s13.891-16.076 11.096-18.99 5.2-12.604 5.505-17.8 3.225-28.763.963-32.542-5.32-17.96.419-23.458 32.498-73.057 32.498-73.057 7.776 79.203 7.758 85.422c-.024 8.087 5.287 4.085 5.287 11.185 0 1.434 17.294 38.302 28.916 49.827l24.035 18.488 11.094-8.32v-12.017s-10.28-22.298-13.867-25.884-16.827-14.563-16.827-19.584-6.233-6.77-2.041-13.426 2.758-9.525 1.324-12.394 1.285-120.415 1.285-120.415z" fill="#2f2e41"/><circle cx="408.437" cy="36.107" r="26.238" fill="#ffb6b6"/><path d="m429.398 246.668 7.386-22.233 13.289 2.447-8.645 23.229a7.843 7.843 0 1 1-12.03-3.443zM276.224 203.702l18.096-14.878 9.942 9.151-19.692 15.05a7.843 7.843 0 1 1-8.346-9.323z" fill="#ffb6b6"/><path d="M377.021 31.517c2.83.878 5.556 1.396 7.396-.925s1.359-4.973 4.095-6.092a9.679 9.679 0 0 1 6.989.324c.397.148.785.314 1.164.48.213-.184.426-.36.657-.526a8.337 8.337 0 0 1 6-1.461 8.18 8.18 0 0 0-3.634 3.467c.758.379 1.525.758 2.302 1.081a22.697 22.697 0 0 0 20.254-1.534c-3.032 7.987-.675 10.834 3.772 18.128l.175.425c-.443-1.914 5.371-4.123 5.371-1.35a33.125 33.125 0 0 1-1.849 8.32c5.704-8.588 9.069-18.636 6.86-28.278-.472-2.025-.684-4.197-1.97-5.843-1.284-1.636-3.65-2.597-5.518-1.673a17.396 17.396 0 0 0-27.992-12.48c-2.31 1.785-4.132 4.123-6.193 6.203s-4.502 3.975-7.386 4.493c-1.83.324-3.892.13-5.353 1.285-1.692 1.34-1.71 3.698-1.7 5.963a8.327 8.327 0 0 1 4.686 1.285 8.148 8.148 0 0 0-4.733 1.664.508.508 0 0 0-.074.055c-.5 3.809-.296 4.613-3.319 6.989z" fill="#2f2e41"/><path d="M54.259 460.329a2.27 2.27 0 0 1-1.645-3.933l.156-.619-.062-.148a6.094 6.094 0 0 0-11.241.042c-1.84 4.428-4.18 8.864-4.756 13.546a18.029 18.029 0 0 0 .316 6.2 72.281 72.281 0 0 1-6.575-30.02 69.764 69.764 0 0 1 .433-7.784q.358-3.177.995-6.31a73.119 73.119 0 0 1 14.5-30.99 19.459 19.459 0 0 0 8.093-8.396 14.843 14.843 0 0 0 1.35-4.056c-.395.051-1.486-5.949-1.189-6.317-.549-.833-1.532-1.247-2.131-2.06-2.983-4.044-7.092-3.338-9.237 2.157-4.582 2.313-4.626 6.148-1.815 9.837 1.79 2.347 2.035 5.522 3.605 8.035-.162.206-.33.407-.491.613a73.591 73.591 0 0 0-7.681 12.169 30.592 30.592 0 0 0-1.827-14.21c-1.748-4.217-5.025-7.769-7.91-11.415a6.28 6.28 0 0 0-11.184 3.084l-.018.16q.643.363 1.26.77a3.078 3.078 0 0 1-1.242 5.602l-.063.01a30.626 30.626 0 0 0 .808 4.58c-3.702 14.315 4.29 19.53 15.701 19.764.252.129.497.258.75.38a75.115 75.115 0 0 0-4.044 19.028 71.243 71.243 0 0 0 .052 11.504l-.02-.136a18.826 18.826 0 0 0-6.426-10.87c-4.946-4.063-11.933-5.559-17.268-8.824a3.533 3.533 0 0 0-5.412 3.437l.022.142a20.677 20.677 0 0 1 2.319 1.118q.643.362 1.258.77a3.078 3.078 0 0 1-1.24 5.601l-.063.01c-.046.006-.084.013-.13.02a30.654 30.654 0 0 0 5.639 8.829c2.315 12.497 12.256 13.682 22.89 10.043h.007a75.093 75.093 0 0 0 5.044 14.726h18.02c.065-.2.123-.407.181-.607a20.474 20.474 0 0 1-4.986-.297c1.337-1.64 2.674-3.294 4.01-4.934a1.12 1.12 0 0 0 .085-.097c.678-.84 1.363-1.673 2.04-2.513h.001a29.99 29.99 0 0 0-.878-7.64z" fill="#f2f2f2"/><path d="M.667 476.826a1.186 1.186 0 0 0 1.19 1.19h564.29a1.19 1.19 0 1 0 0-2.38H1.858a1.187 1.187 0 0 0-1.19 1.19z" fill="#ccc"/><path d="M186.882 155.03c.111 2.28.242 4.56.394 6.82h11.261l-.16-.11a121.192 121.192 0 0 0-11.495-6.71z" fill="none"/><path d="m410.267 459.537 14.066.698 7.805-32.744c17.946-4.035 22.203-15.069 28.655-13.17 28.622 8.426 62.638 7.533 51.063-4.042-4.746-4.746-7.11-20.5-8.249-37.436h-87.365z" transform="translate(-316.331 -210.992)" style="fill:#015abb"/><path style="fill:#015abb" d="m198.537 161.851 62.456 43.206 9.999-9.916-34.303-33.29h-38.152z"/><path d="m208.53 134.522-22.006-23.476.012-.386-.671-.317-6.4-6.828a19.867 19.867 0 0 0-14.212-6.326 20.389 20.389 0 0 0-2.274.091l-3.397-8.322-28.416-6.028-5.642 11.357-11.017 6.379a19.9 19.9 0 0 0-6.907 3.998l-1.076.623.08.327a19.838 19.838 0 0 0-5.77 13.605l-.914 42.49-.01.142h87.366a371.17 371.17 0 0 1-.394-6.82 121.192 121.192 0 0 1 11.495 6.709l.16.11h38.152z" fill="#015abb"/><path d="M611.318 392.877c2.27 4.488-.92 1.46-4.488 2.271-3.57.811-1.839 2.92-1.758 6.03s-12.194 9.65-12.194 9.65c7.49 2.678 16.87 13.682 16.87 13.682s9.085-9.57 10.735-10.571c1.649-1 2.568-2.46 7.786-4.272 5.219-1.81 3.029-3.19 3.407-7.029.379-3.84 1.65-1 8.977-4.542s1.379-2.19 3.406-7.03c2.028-4.839 1.38-2.19 7.976-6.19 3.966-2.406 7.904-5.938 13.384-12.033h-41.812c-7.712 10.653-12.963 18.701-12.289 20.034z" transform="translate(-316.331 -210.992)" style="fill:#015abb"/><path d="M471.606 151.786c1.466-12.21-.388-25.251-2.271-34.267a21.716 21.716 0 0 0-10.058-14.168c-.192-.98-.531-1.606-1.053-1.79-7.457-2.652-28.277-14.9-28.277-14.9l-1.745-14.006-37.673-1.81-9.64 15.816s-24.972 2.51-24.51 11.651c-6.047 7.544-32.968 41.25-49.104 63.539h41.813c3.637-4.046 7.953-9.22 13.41-15.95.038-.045.073-.093.11-.139.366 5.456.649 10.914.817 16.089h106.914c.406-3.035.824-6.369 1.267-10.065z" fill="#015abb"/><path d="M786.67 372.843H679.756c.477 14.703.022 27.1-2.119 30.515-3.003 4.792-8.088 20.83-12.222 34.91a17.995 17.995 0 0 0 17.86 23.046c25.641-.846 63.164-2.802 70.477-7.093a81.014 81.014 0 0 1 11.757 2.584s2.588-12.94 3.45-14.665c.863-1.725.863-3.45 4.314-7.763 3.45-4.314.862-4.314-.863-7.764s.863-1.725 5.176-8.626c4.313-6.902 0-2.588-.863-7.764-.862-5.176 0-2.588 3.451-9.49 2.86-5.717 4.534-13.22 6.496-27.89z" transform="translate(-316.331 -210.992)" style="fill:#015abb"/><path d="M112.822 46.527c-3.53-12.867 24.936-23.9 32.41-13.539 1.04-1.473 4.88-2.368 6.643-1.916a13.744 13.744 0 0 1 4.691 2.676c1.989 1.527 4.05 3.109 5.27 5.305 1.228 2.187 1.418 5.17-.236 7.068-1.31 1.509-5.179 2.485-7.149 2.883-1.374.28-2.53.506-3.525.669a6.74 6.74 0 0 1-1.175-4.456 5.47 5.47 0 0 0-2.386 4.013c-.027.334 11.108 41.304 11.108 41.304a24.287 24.287 0 0 1-4.203 1.889 52.848 52.848 0 0 1-6.552-14.28 45.762 45.762 0 0 0 .126 10.167 55.95 55.95 0 0 0 .958 5.63c-13.231 2.857-33.133 1.917-41.792-10.23l-.004-.151a2.067 2.067 0 0 0-3.993-.72c-.21.535-.403.999-.576 1.368-2.521-9.02.741-19.459 10.385-37.68z" fill="#2f2e41"/></svg>