<svg xmlns="http://www.w3.org/2000/svg" data-name="Layer 1" width="726.423" height="705.12"><path d="M509.793 702.74c-.76.8-1.55 1.59-2.35 2.38h-91.22c-.75-.77-1.49-1.56-2.23-2.38-.03-.03-.06-.07-.09-.1-9.91-10.98-16.15-26.94-20.04-43.77a99.95 99.95 0 0 1-.69-3.09c-1.02-4.73-1.85-9.51-2.53-14.25-.12-.82-.24-1.64-.34-2.46-.92-6.81-1.54-13.51-1.94-19.8l-.15-2.39a324.83 324.83 0 0 1-.02-37.6s.12 0 .35.01c.67.03 2.28.1 4.65.24 6.53.4 18.85 1.4 33.34 3.76.79.13 1.59.27 2.39.41a252.149 252.149 0 0 1 36.17 8.76c.74.25 1.47.5 2.21.75l.01.05 9.07 45.51 3.76-40.51c2.99 1.35 5.9 2.79 8.69 4.33.78.43 1.54.86 2.29 1.3a72.11 72.11 0 0 1 17.17 13.54c29.75 32.97 23.38 62.44 1.5 85.31z" fill="#f2f2f2"/><path d="m471.672 645.032 1.582 1.752c18.28 20.459 29.188 39.448 32.549 56.72.053.25.09.5.143.751l-1.169.222-1.127.199c-3.43-18.83-16.201-38.296-32.14-56.144a77.726 77.726 0 0 0-1.557-1.743c-6.814-7.496-14.14-14.687-21.548-21.41a175.4 175.4 0 0 0-1.74-1.579c-9.823-8.825-19.706-16.808-28.52-23.538-.621-.479-1.25-.95-1.872-1.411-14.966-11.33-26.577-18.84-29.165-20.485-.312-.207-.489-.315-.529-.342l.613-.978v-.016l.622-.986c.04.027.634.388 1.706 1.088 4.029 2.597 14.856 9.744 28.326 19.905.605.461 1.235.932 1.856 1.41 7.158 5.454 14.987 11.703 22.894 18.543q2.983 2.573 5.818 5.137c.594.519 1.179 1.045 1.748 1.57q12.013 10.902 21.51 21.335z" fill="#fff"/><path d="M427.393 581.35c-.27.65-.56 1.3-.86 1.94a62.382 62.382 0 0 1-8.69 13.75c-.51.6-1.03 1.21-1.57 1.81q-2.19 2.415-4.66 4.67a62.595 62.595 0 0 1-23.4 13.36c-.28.09-.55.18-.83.26.05.79.1 1.57.15 2.38.28-.08.55-.16.83-.25a64.85 64.85 0 0 0 24.81-14.02 66.938 66.938 0 0 0 4.97-4.99c.54-.59 1.06-1.2 1.56-1.81a64.419 64.419 0 0 0 9.22-14.75c.28-.64.56-1.28.83-1.93-.8-.14-1.59-.28-2.36-.42zM465.503 590.69c-.12.59-.26 1.18-.41 1.77a62.564 62.564 0 0 1-16.68 29.67c-.57.57-1.15 1.13-1.75 1.67-.17.17-.36.35-.54.51a63.024 63.024 0 0 1-55.82 14.76c-.23-.04-.47-.1-.7-.15.12.82.23 1.65.36 2.47.23.05.45.1.68.14a65.36 65.36 0 0 0 57.04-15.49c.24-.22.49-.43.72-.66.6-.56 1.18-1.12 1.76-1.68a65.028 65.028 0 0 0 17.15-30.44q.225-.9.42-1.8c-.74-.26-1.48-.52-2.23-.77z" fill="#fff"/><path d="M488.833 600.9c.01.56.01 1.13 0 1.69a62.703 62.703 0 0 1-17.16 42.44c-.56.6-1.14 1.18-1.72 1.76-.63.61-1.26 1.22-1.91 1.8a63.162 63.162 0 0 1-74.87 7.19 6.713 6.713 0 0 1-.58-.34c.24 1.06.48 2.1.74 3.14.18.1.35.2.53.29a65.505 65.505 0 0 0 75.74-8.54c.65-.59 1.3-1.18 1.91-1.8.6-.57 1.17-1.15 1.74-1.75a65.251 65.251 0 0 0 17.87-42.89q.03-.81.03-1.62c-.76-.47-1.54-.92-2.32-1.37zM286.667 165.578H110.882a5.524 5.524 0 0 1-5.518-5.517V26.585a5.524 5.524 0 0 1 5.518-5.518H326.65a5.524 5.524 0 0 1 5.517 5.519v93.492a45.551 45.551 0 0 1-45.5 45.5z" fill="#fff"/><path d="M286.667 166.078H110.882a6.025 6.025 0 0 1-6.018-6.017V26.585a6.025 6.025 0 0 1 6.018-6.018H326.65a6.024 6.024 0 0 1 6.017 6.019v93.492a46.052 46.052 0 0 1-46 46zM110.882 22.568a4.023 4.023 0 0 0-4.018 4.018V160.06a4.022 4.022 0 0 0 4.018 4.017h175.785a44.05 44.05 0 0 0 44-44V26.585a4.023 4.023 0 0 0-4.017-4.018z" fill="#ccc"/><path d="M283.998 66.144H153.534a4.516 4.516 0 0 1 0-9.032h130.464a4.516 4.516 0 0 1 0 9.032zM283.998 97.255H153.534a4.516 4.516 0 0 1 0-9.032h130.464a4.516 4.516 0 1 1 0 9.032zM283.998 129.255H153.534a4.516 4.516 0 0 1 0-9.032h130.464a4.516 4.516 0 1 1 0 9.032z" fill="#ccc"/><circle cx="325.03" cy="26.968" r="26.969" fill="#3b82f6"/><path d="M321.35 41.004a2.999 2.999 0 0 1-2.399-1.2l-7.357-9.81a3 3 0 1 1 4.8-3.6l4.813 6.418 12.363-18.544a3 3 0 1 1 4.992 3.328l-14.715 22.072a3.001 3.001 0 0 1-2.413 1.335l-.083.001zM221.786 281.507H46a45.551 45.551 0 0 1-45.5-45.5v-93.493a5.525 5.525 0 0 1 5.518-5.518h215.768a5.525 5.525 0 0 1 5.518 5.518V275.99a5.525 5.525 0 0 1-5.518 5.518z" fill="#fff"/><path d="M221.786 282.007H46a46.052 46.052 0 0 1-46-46v-93.493a6.025 6.025 0 0 1 6.018-6.018h215.768a6.025 6.025 0 0 1 6.018 6.018V275.99a6.025 6.025 0 0 1-6.018 6.018zM6.018 138.497A4.023 4.023 0 0 0 2 142.513v93.493a44.05 44.05 0 0 0 44 44h175.786a4.023 4.023 0 0 0 4.018-4.018V142.514a4.023 4.023 0 0 0-4.018-4.018z" fill="#ccc"/><path d="M179.134 182.073H48.67a4.516 4.516 0 1 1 0-9.032h130.464a4.516 4.516 0 1 1 0 9.032zM179.134 213.184H48.67a4.516 4.516 0 0 1 0-9.032h130.464a4.516 4.516 0 1 1 0 9.032zM179.134 245.184H48.67a4.516 4.516 0 0 1 0-9.032h130.464a4.516 4.516 0 1 1 0 9.032z" fill="#ccc"/><circle cx="222.03" cy="143.969" r="26.969" fill="#3b82f6"/><path d="M218.35 158.004a2.999 2.999 0 0 1-2.399-1.2l-7.357-9.81a3 3 0 1 1 4.8-3.6l4.813 6.418 12.363-18.544a3 3 0 0 1 4.992 3.328l-14.715 22.072a3.001 3.001 0 0 1-2.413 1.335l-.083.001zM440.81 405.92H194.846a45.551 45.551 0 0 1-45.5-45.5V222.907a7.121 7.121 0 0 1 7.113-7.113H440.81a7.12 7.12 0 0 1 7.112 7.113v175.9a7.121 7.121 0 0 1-7.112 7.113z" fill="#fff"/><path d="M440.81 406.42H194.846a46.052 46.052 0 0 1-46-46V222.907a7.621 7.621 0 0 1 7.613-7.613H440.81a7.621 7.621 0 0 1 7.612 7.613v175.9a7.621 7.621 0 0 1-7.612 7.613zM156.46 217.294a5.62 5.62 0 0 0-5.613 5.613V360.42a44.05 44.05 0 0 0 44 44H440.81a5.62 5.62 0 0 0 5.612-5.613v-175.9a5.619 5.619 0 0 0-5.612-5.613z" fill="#ccc"/><path d="M384.601 275.04H212.668a5.952 5.952 0 1 1 0-11.903H384.6a5.952 5.952 0 1 1 0 11.903zM384.601 316.04H212.668a5.952 5.952 0 1 1 0-11.904H384.6a5.952 5.952 0 1 1 0 11.903zM384.601 358.21H212.668a5.952 5.952 0 1 1 0-11.902H384.6a5.952 5.952 0 1 1 0 11.903z" fill="#ccc"/><circle cx="441.703" cy="226.559" r="34.139" fill="#3b82f6"/><path d="M437.046 244.327a3.796 3.796 0 0 1-3.038-1.52l-9.313-12.418a3.797 3.797 0 1 1 6.076-4.556l6.093 8.123 15.65-23.474a3.798 3.798 0 0 1 6.32 4.213l-18.628 27.94a3.8 3.8 0 0 1-3.054 1.69l-.106.002z" fill="#fff"/><path fill="#ffb6b6" d="m530.145 677.866-13.889 4.645-24.527-51.363 20.5-6.856 17.916 53.574z"/><path d="m538.19 690.144-44.785 11.978-.19-.566c-1.557-4.657-1.207-6.64.984-11.034a18.26 18.26 0 0 1 10.618-9.228l6.106-8.943 17.339 1.102 3.91-1.307z" fill="#2f2e41"/><path fill="#ffb6b6" d="M564.461 690.925h-14.645l-6.968-56.49 21.616.001-.003 56.489z"/><path d="m568.196 702.122-47.223-.002v-.597c0-4.91 1.912-6.526 5.384-9.997a18.26 18.26 0 0 1 12.996-5.383h.001l8.626-6.544 16.095 6.545h4.122z" fill="#2f2e41"/><path d="M453 238.316a10.696 10.696 0 0 0 14.369 7.907l16.908 17.652 13.233-7.658-24.227-24.593a10.754 10.754 0 0 0-20.284 6.692z" fill="#ffb6b6"/><path fill="#e4e4e4" d="m562.421 327.072 7.622-7.886-44.078-40.823-44.363-39.612-12.287 17.362 46.489 43.394 46.617 27.565z"/><path d="M535.338 594.974c0-9.91.196-16.98.354-22.66.46-16.623.585-21.092-5.777-49.719l-1.634-7.352-9.634 28.904a90.54 90.54 0 0 0-4.657 28.596l14.855 89.132h-30.362l-22.237-96.36-.01-29.476a10.873 10.873 0 0 1 0-15.112l7.387-44.159 7.478-59.513h81.907s14.455 29.962.09 59.682l-.002 118.074-7.422 81.64h-22.913z" fill="#2f2e41"/><path d="m568 424.458-76.613-6.384-.398-.033 6.114-110.053a34.611 34.611 0 0 1 23.46-30.986V269.3a7.198 7.198 0 0 1 7.19-7.19h11.193a7.151 7.151 0 0 1 6.431 3.975l5.474 10.947 20.698 16.56c10.223 8.178 1.995 90.176 1.553 94.502l5.006 25.031a9.505 9.505 0 0 1-9.296 11.368q-.404-.001-.812-.035z" fill="#e4e4e4"/><path d="M486.868 453.517a10.696 10.696 0 0 0 .202-16.4l7.601-23.231-12.99-8.063-10.274 32.957a10.754 10.754 0 0 0 15.46 14.737z" fill="#ffb6b6"/><path fill="#e4e4e4" d="m513.585 295.588-10.547-3.516-15.234 67.968-14.031 67.594 21.103 3.105 16.365-71.871 2.344-63.28z"/><circle cx="525.103" cy="229.914" r="25.162" fill="#ffb6b6"/><path d="M491.247 217.591a18.894 18.894 0 0 1 2.014-6.833c1.176 2.558 4.845 3.002 7.357 1.73 2.511-1.274 4.194-3.692 5.988-5.861 4.736-5.724 11.248-10.368 18.629-11.213 7.38-.846 15.516 2.88 18.305 9.765 1.252-1.737 3.922-1.93 5.81-.92a10.45 10.45 0 0 1 4.076 4.828 30.766 30.766 0 0 1 1.024 24.617c-3.108 7.864-10.783 18.46-18.702 21.429-4.807 1.802-9.663-.505-14.775 0 .267-5.58 1.35-12.465 1.617-18.044.147-3.056.168-6.475-1.92-8.712a6.025 6.025 0 0 0-9.19 1.073 13.842 13.842 0 0 0-1.727-4.92 4.708 4.708 0 0 0-4.42-2.265c-2.135.35-3.453 2.541-5.412 3.459a5.882 5.882 0 0 1-6.538-1.5 8.894 8.894 0 0 1-2.136-6.633z" fill="#2f2e41"/><path opacity=".1" d="m528.36 358.563-29.551 59.102h22.164l7.387-59.102z"/><path d="M726.423 703.93a1.186 1.186 0 0 1-1.19 1.19h-564.29a1.19 1.19 0 0 1 0-2.38h564.29a1.186 1.186 0 0 1 1.19 1.19z" fill="#cacaca"/></svg>